<?xml version="1.0" encoding="UTF-8" standalone="no"?>
<!DOCTYPE svg PUBLIC "-//W3C//DTD SVG 1.1//EN" "http://www.w3.org/Graphics/SVG/1.1/DTD/svg11.dtd">
<svg width="100%" height="100%" viewBox="0 0 150 150" version="1.1" xmlns="http://www.w3.org/2000/svg" xmlns:xlink="http://www.w3.org/1999/xlink" xml:space="preserve" xmlns:serif="http://www.serif.com/" style="fill-rule:evenodd;clip-rule:evenodd;stroke-linejoin:round;stroke-miterlimit:2;">
    <rect id="Artboard1" x="0" y="0" width="150" height="150" style="fill:none;"/>
    <g transform="matrix(1.42511,0,0,1.42511,-29.0078,-32.333)">
        <g>
            <path d="M78.719,-12.209C74.899,-12.46 71.066,-12.46 67.246,-12.209L72.982,75.316L78.719,-12.209ZM55.871,-10.712C52.116,-9.965 48.413,-8.973 44.788,-7.742L72.982,75.316L55.871,-10.712ZM34.188,-3.351C30.754,-1.658 27.435,0.258 24.252,2.385L72.982,75.316L34.188,-3.351ZM15.149,9.37C12.271,11.894 9.561,14.604 7.037,17.483L72.982,75.316L15.149,9.37ZM0.052,26.585C-2.075,29.768 -3.991,33.088 -5.685,36.521L72.982,75.316L0.052,26.585ZM-10.075,47.121C-11.306,50.747 -12.298,54.449 -13.045,58.204L72.982,75.316L-10.075,47.121ZM-14.542,69.579C-14.793,73.399 -14.793,77.232 -14.542,81.052L72.982,75.316L-14.542,69.579ZM-13.045,92.428C-12.298,96.183 -11.306,99.885 -10.075,103.51L72.982,75.316L-13.045,92.428ZM-5.685,114.11C-3.991,117.544 -2.075,120.863 0.052,124.046L72.982,75.316L-5.685,114.11ZM7.037,133.149C9.561,136.027 12.271,138.737 15.149,141.262L72.982,75.316L7.037,133.149ZM24.252,148.246C27.435,150.373 30.754,152.289 34.188,153.983L72.982,75.316L24.252,148.246ZM44.788,158.373C48.413,159.604 52.116,160.596 55.871,161.343L72.982,75.316L44.788,158.373ZM67.246,162.841C71.066,163.091 74.899,163.091 78.719,162.841L72.982,75.316L67.246,162.841ZM90.094,161.343C93.849,160.596 97.551,159.604 101.177,158.373L72.982,75.316L90.094,161.343ZM111.777,153.983C115.21,152.289 118.53,150.373 121.713,148.246L72.982,75.316L111.777,153.983ZM130.815,141.262C133.694,138.737 136.404,136.027 138.928,133.149L72.982,75.316L130.815,141.262ZM145.913,124.046C148.04,120.863 149.956,117.544 151.65,114.11L72.982,75.316L145.913,124.046ZM156.04,103.51C157.271,99.885 158.263,96.183 159.01,92.428L72.982,75.316L156.04,103.51ZM160.507,81.052C160.758,77.232 160.758,73.399 160.507,69.579L72.982,75.316L160.507,81.052ZM159.01,58.204C158.263,54.449 157.271,50.747 156.04,47.121L72.982,75.316L159.01,58.204ZM151.65,36.521C149.956,33.088 148.04,29.768 145.913,26.585L72.982,75.316L151.65,36.521ZM138.928,17.483C136.404,14.604 133.694,11.894 130.815,9.37L72.982,75.316L138.928,17.483ZM121.713,2.385C118.53,0.258 115.21,-1.658 111.777,-3.351L72.982,75.316L121.713,2.385ZM101.177,-7.742C97.551,-8.973 93.849,-9.965 90.094,-10.712L72.982,75.316L101.177,-7.742Z" style="fill:white;"/>
        </g>
    </g>
</svg>
